<?xml version="1.0" encoding="utf-8"?>
<!-- Uploaded to: SVG Repo, www.svgrepo.com, Generator: SVG Repo Mixer Tools -->
<svg width="50px" height="50px" viewBox="0 0 1024 1024" class="icon"  version="1.1" xmlns="http://www.w3.org/2000/svg"><path d="M 724.5 615.6 L 546.6 437.8 c -3.4 -3.4 -3.4 -9 0 -12.5 l 143.6 -143.6 c 50.5 -50.4 133 -50.4 183.5 0 c 54.2 54.2 54.2 142.9 0 197.1 L 736.9 615.6 c -3.4 3.4 -9 3.4 -12.4 0 z" fill="#fff" /><path d="M 238.2 222.1 c 37.2 0 72.1 14.4 98.2 40.5 l 149 149.1 L 289 608 L 140 458.9 c -26.1 -26.1 -40.5 -61 -40.5 -98.2 s 14.4 -72.1 40.5 -98.2 s 61 -40.4 98.2 -40.4 m 0 -15 c -39.4 0 -78.9 15 -108.8 44.9 c -59.8 59.8 -59.8 157.7 0 217.6 L 289 629.2 l 217.6 -217.6 L 347 252 c -29.9 -30 -69.3 -44.9 -108.8 -44.9 z" fill="#34C3BE" /><path d="M 784.5 222.1 c 37.2 0 72.1 14.4 98.2 40.5 c 26.1 26.1 40.5 61 40.5 98.2 s -14.4 72.1 -40.5 98.2 L 733.6 608 L 537.2 411.6 l 149.1 -149 c 26.1 -26.1 61 -40.5 98.2 -40.5 m 0 -15 c -39.4 0 -78.9 15 -108.8 44.8 L 516 411.6 l 217.6 217.6 l 159.7 -159.6 c 59.9 -59.8 59.9 -157.8 0 -217.6 c -30 -29.9 -69.4 -44.9 -108.8 -44.9 z M 570.6 623.7 c 6.4 0 11.6 5.2 11.6 11.6 c 0 6.4 -5.2 11.6 -11.6 11.6 c -3.1 0 -6 -1.2 -8.2 -3.4 s -3.4 -5.1 -3.4 -8.2 c 0 -6.4 5.2 -11.6 11.6 -11.6 m 0.1 -15 c -14.7 0 -26.6 11.9 -26.6 26.6 s 11.9 26.6 26.6 26.6 c 14.7 0 26.6 -11.9 26.6 -26.6 c 0 -14.7 -11.9 -26.6 -26.6 -26.6 z" fill="#ce0202" /><path d="M 454.8 622.6 c 6.4 0 11.6 5.2 11.6 11.6 s -5.2 11.6 -11.6 11.6 c -3.1 0 -6 -1.2 -8.2 -3.4 s -3.4 -5.1 -3.4 -8.2 c 0 -3.1 1.2 -6 3.4 -8.2 s 5.1 -3.4 8.2 -3.4 m 0 -15 c -14.7 0 -26.6 11.9 -26.6 26.6 c 0 14.7 11.9 26.6 26.6 26.6 s 26.6 -11.9 26.6 -26.6 c 0.1 -14.7 -11.9 -26.6 -26.6 -26.6 z M 569.3 757.7 c 3.1 0 6 1.2 8.2 3.4 s 3.4 5.1 3.4 8.2 c 0 3.1 -1.2 6 -3.4 8.2 s -5.1 3.4 -8.2 3.4 s -6 -1.2 -8.2 -3.4 s -3.4 -5.1 -3.4 -8.2 c 0 -3.1 1.2 -6 3.4 -8.2 c 2.2 -2.1 5.1 -3.4 8.2 -3.4 m 0 -15 c -14.7 0 -26.6 11.9 -26.6 26.6 c 0 14.7 11.9 26.6 26.6 26.6 s 26.6 -11.9 26.6 -26.6 c 0.1 -14.6 -11.9 -26.6 -26.6 -26.6 z M 453.5 756.6 c 3.1 0 6 1.2 8.2 3.4 s 3.4 5.1 3.4 8.2 c 0 3.1 -1.2 6 -3.4 8.2 c -2.2 2.2 -5.1 3.4 -8.2 3.4 c -6.4 0 -11.6 -5.2 -11.6 -11.6 c 0 -6.4 5.2 -11.6 11.6 -11.6 m 0 -15 c -14.7 0 -26.6 11.9 -26.6 26.6 c 0 14.7 11.9 26.6 26.6 26.6 s 26.6 -11.9 26.6 -26.6 s -11.9 -26.6 -26.6 -26.6 z M 622.1 698.8 c 3.1 0 6 1.2 8.2 3.4 s 3.4 5.1 3.4 8.2 c 0 3.1 -1.2 6 -3.4 8.2 s -5.1 3.4 -8.2 3.4 c -3.1 0 -6 -1.2 -8.2 -3.4 s -3.4 -5.1 -3.4 -8.2 c 0 -3.1 1.2 -6 3.4 -8.2 s 5.1 -3.4 8.2 -3.4 m 0 -15 c -14.7 0 -26.6 11.9 -26.6 26.6 s 11.9 26.6 26.6 26.6 c 14.7 0 26.6 -11.9 26.6 -26.6 c 0.1 -14.7 -11.9 -26.6 -26.6 -26.6 z M 396.9 693.9 c 6.4 0 11.6 5.2 11.6 11.6 c 0 6.4 -5.2 11.6 -11.6 11.6 s -11.6 -5.2 -11.6 -11.6 c 0 -3.1 1.2 -6 3.4 -8.2 c 2.2 -2.1 5.1 -3.4 8.2 -3.4 m 0 -15 c -14.7 0 -26.6 11.9 -26.6 26.6 c 0 14.7 11.9 26.6 26.6 26.6 s 26.6 -11.9 26.6 -26.6 c 0 -14.6 -11.9 -26.6 -26.6 -26.6 z M 510.2 689.9 c 6.4 0 11.6 5.2 11.6 11.6 c 0 6.4 -5.2 11.6 -11.6 11.6 s -11.6 -5.2 -11.6 -11.6 c 0 -3.1 1.2 -6 3.4 -8.2 s 5.1 -3.4 8.2 -3.4 m 0 -15 c -14.7 0 -26.6 11.9 -26.6 26.6 c 0 14.7 11.9 26.6 26.6 26.6 s 26.6 -11.9 26.6 -26.6 s -11.9 -26.6 -26.6 -26.6 z M 511.5 557.8 c 6.4 0 11.6 5.2 11.6 11.6 c 0 6.4 -5.2 11.6 -11.6 11.6 c -3.1 0 -6 -1.2 -8.2 -3.4 s -3.4 -5.1 -3.4 -8.2 c 0 -3.1 1.2 -6 3.4 -8.2 c 2.2 -2.2 5.1 -3.4 8.2 -3.4 m 0 -15 c -14.7 0 -26.6 11.9 -26.6 26.6 c 0 14.7 11.9 26.6 26.6 26.6 s 26.6 -11.9 26.6 -26.6 c 0.1 -14.7 -11.9 -26.6 -26.6 -26.6 z M 508.9 823.7 c 6.4 0 11.6 5.2 11.6 11.6 c 0 3.1 -1.2 6 -3.4 8.2 s -5.1 3.4 -8.2 3.4 c -6.4 0 -11.6 -5.2 -11.6 -11.6 c 0 -3.1 1.2 -6 3.4 -8.2 s 5.1 -3.4 8.2 -3.4 m 0 -15 c -14.7 0 -26.6 11.9 -26.6 26.6 c 0 14.7 11.9 26.6 26.6 26.6 c 14.7 0 26.6 -11.9 26.6 -26.6 c 0 -14.7 -11.9 -26.6 -26.6 -26.6 z" fill="#F2B138;" /></svg>