<svg xmlns="http://www.w3.org/2000/svg" data-name="Layer 1" width="483.3" height="300.3" viewBox="0 0 883.27231 404.19846" xmlns:xlink="http://www.w3.org/1999/xlink"><path d="M 916.7 400.2 q 18.3 19.2 40.7 6.1 c -6.3 -10.1 -7.8 -21 -6.1 -32.6 H 922.1 C 923.4 383.8 923 393.3 916.7 400.2 Z" transform="translate(-158.4,-147.9)" fill="#ffb8b8"/><polygon points="806.5,586.4 822.1,578.3 828.9,492 828.9,446.5 792.9,445.8 803.1,491.3 806.5,586.4" fill="#ffb8b8"/><polygon points="761.2,586.4 745.6,578.3 738.8,492 738.8,446.5 774.8,445.8 764.6,491.3 761.2,586.4" fill="#ffb8b8"/><path d="M 895.6 603.9 l 38 -3.4 l 6.1 -34.6 l 7.5 34 l 41.4 -2.7 c 0.9 -16.5 -1.4 -33.5 -6.8 -50.9 L 890.9 544.2 Z" transform="translate(-158.4,-147.9)" fill="#2f2e41"/><path d="M 856.1 473.8 l -45.7 -35.2 a 6.7 6.7 0 0 0 -1.6 -0.9 l -6.6 -2.7 c -5.3 -2.2 -15.5 -9.4 -10.6 -16.8 c 4 -6 19.3 4.7 21.2 8.7 a 6.6 6.6 0 0 0 2.8 3 l 9.3 5.1 a 6.7 6.7 0 0 0 0.7 0.3 l 35.4 14.3 a 6.7 6.7 0 0 0 6.1 -0.5 l 6.4 -4.1 a 6.7 6.7 0 0 1 10.1 4.3 l 2.1 10.7 a 6.7 6.7 0 0 1 -4.2 7.5 l -19 7.2 A 6.7 6.7 0 0 1 856.1 473.8 Z" transform="translate(-158.4,-147.9)" fill="#ffb8b8"/><path d="M 864.6 448.2 c 12.7 -3.4 11.3 14.3 21 23 l 19 -15 l -11 -53.3 h 0 a 19.8 19.8 0 0 0 -13 11.9 Z" transform="translate(-158.4,-147.9)" fill="#6c63ff"/><path d="M 888.1 547.6 h 95.8 c -15.5 -41.8 -14 -84.7 -0.8 -128.5 a 3.3 3.3 0 0 0 -1.6 -3.8 L 954 400.9 c -10.8 7 -22.4 4.9 -34.6 -4.8 l -29.9 8.1 C 897.6 453.1 897.9 501 888.1 547.6 Z" transform="translate(-158.4,-147.9)" fill="#6c63ff"/><path d="M 912.1 750.3 l -39.9 1.7 a 7 7 0 0 1 -7.3 -6 h 0 a 7 7 0 0 1 5.3 -7.9 l 6.8 -1.7 l 26.6 -15.4 c 3.9 4.1 9.4 7.5 16 10.5 l 0.1 10.8 A 7.9 7.9 0 0 1 912.1 750.3 Z" transform="translate(-158.4,-147.9)" fill="#2f2e41"/><polygon points="882.9,604.2 0.3,604.2 0.3,602 883.3,602 882.9,604.2" fill="#3f3d56"/><path d="M 972.1 749.7 l 39.9 1.7 a 7 7 0 0 0 7.3 -6 h 0 a 7 7 0 0 0 -5.3 -7.9 l -6.8 -1.7 l -26.6 -15.4 c -3.9 4.1 -9.4 7.5 -16 10.5 l -0.1 10.8 A 7.9 7.9 0 0 0 972.1 749.7 Z" transform="translate(-158.4,-147.9)" fill="#2f2e41"/><circle cx="775.3" cy="216.3" r="21.7" fill="#ffb8b8"/><path d="M 967.6 540.8 l -7.2 14 a 9.8 9.8 0 0 0 5.3 13.7 h 0 a 9.8 9.8 0 0 0 13.2 -7.8 l 3 -20.5 L 992.7 488.5 l -0.7 -25.8 H 970.3 C 977.7 481.9 974 510.2 967.6 540.8 Z" transform="translate(-158.4,-147.9)" fill="#ffb8b8"/><path d="M 966.9 465.4 h 29.2 l -4.2 -32 a 26.2 26.2 0 0 0 -14.8 -20.3 h 0 Z" transform="translate(-158.4,-147.9)" fill="#6c63ff"/><path d="M 956.7 352.2 a 20.9 20.9 0 0 0 -4.6 -16.4 c -3.7 -4.4 -9.9 -8 -20.2 -6.3 c -22.5 3.7 -29 22.4 -26.8 27.1 s 9 15.6 9 15.6 s -5 -10.8 0.4 -13 s 26.2 -10.9 33.5 -7 a 13 13 0 0 1 7.2 11 Z" transform="translate(-158.4,-147.9)" fill="#2f2e41"/><path d="M 584.8 261.8 l -8.7 4.4 a 197.8 197.8 0 0 0 -39.4 -53.2 c -78.8 -75.7 -204.5 -73.3 -280.2 5.5 s -73.3 204.5 5.5 280.2 A 198.1 198.1 0 0 0 312.8 534.3 l -4.3 8.8 A 208 208 0 1 1 584.8 261.8 Z" transform="translate(-158.4,-147.9)" fill="#e6e6e6"/><path d="M 289.2 444.1 A 69.9 69.9 0 0 0 390 541 l 12 -12.5 L 301.2 431.5 Z" transform="translate(-158.4,-147.9)" fill="#e6e6e6"/><path d="M 294.4 424.4 a 15.6 15.6 0 0 0 0.4 22 l 92.5 88.9 a 15.6 15.6 0 0 0 21.6 -22.5 l -92.5 -88.9 A 15.6 15.6 0 0 0 294.4 424.4 Z" transform="translate(-158.4,-147.9)" fill="#535461"/><path d="M 571.8 351.9 l 12 -12.5 a 69.9 69.9 0 0 0 -100.8 -96.9 l -12 12.5 Z" transform="translate(-158.4,-147.9)" fill="#e6e6e6"/><path d="M 463.6 248.5 a 15.6 15.6 0 0 0 0.4 22 l 92.5 88.9 a 15.6 15.6 0 0 0 21.6 -22.5 l -92.5 -88.9 A 15.6 15.6 0 0 0 463.6 248.5 Z" transform="translate(-158.4,-147.9)" fill="#535461"/><path d="M 502.6 453.9 v -7.2 s 31.5 -17.7 57.1 0 v 6.6 Z" transform="translate(-158.4,-147.9)" fill="#535461"/><path d="M 789.5 453.9 v -7.2 s 31.5 -17.7 57.1 0 v 6.6 Z" transform="translate(-158.4,-147.9)" fill="#535461"/><path d="M 597.1 453.3 H 566.3 s -7.9 -9.2 -34.1 -8.5 s -31.5 8.5 -31.5 8.5 s -25.9 17.4 -31.8 39.1 c 0 0 -31.8 95.5 -32.5 170.4 s 28.2 85.4 43.3 87.3 s 42 -0.7 68.3 -67 L 559.1 644.3 s 2 -23 25.6 -8.5 s 44.6 -7.9 44.6 -7.9 h 88.6 s 29.5 18.4 56.5 3.9 c 0 0 10.5 -13.8 20.4 32.8 c 0 0 30.2 95.9 76.8 86 s 41.4 -90 41.4 -90 s -6.2 -122.5 -31.8 -165.8 c 0 0 -24.6 -45 -41 -46.9 c 0 0 -35.5 -6.6 -49.2 -0.7 l -7.9 6.6 Z" transform="translate(-158.4,-147.9)" fill="#e6e6e6"/><circle cx="367.2" cy="369.7" r="57.1" fill="#535461"/><circle cx="665.3" cy="369.7" r="57.1" fill="#535461"/><path d="M 535.5 504.9 l -7.6 6.7 a 3.5 3.5 0 0 1 -4.7 0 l -7.6 -6.7 a 3.5 3.5 0 0 1 -1.2 -2.6 V 483.7 a 3.5 3.5 0 0 1 3.5 -3.5 h 15.3 a 3.5 3.5 0 0 1 3.5 3.5 V 502.2 A 3.5 3.5 0 0 1 535.5 504.9 Z" transform="translate(-158.4,-147.9)" fill="#e6e6e6"/><path d="M 535.5 530.3 l -7.6 -6.7 a 3.5 3.5 0 0 0 -4.7 0 l -7.6 6.7 a 3.5 3.5 0 0 0 -1.2 2.6 v 18.5 a 3.5 3.5 0 0 0 3.5 3.5 h 15.3 a 3.5 3.5 0 0 0 3.5 -3.5 V 533 A 3.5 3.5 0 0 0 535.5 530.3 Z" transform="translate(-158.4,-147.9)" fill="#e6e6e6"/><path d="M 512.8 527.6 l 6.7 -7.6 a 3.5 3.5 0 0 0 0 -4.7 l -6.7 -7.6 a 3.5 3.5 0 0 0 -2.6 -1.2 H 491.7 a 3.5 3.5 0 0 0 -3.5 3.5 v 15.3 a 3.5 3.5 0 0 0 3.5 3.5 h 18.5 A 3.5 3.5 0 0 0 512.8 527.6 Z" transform="translate(-158.4,-147.9)" fill="#e6e6e6"/><path d="M 538.3 527.6 l -6.7 -7.6 a 3.5 3.5 0 0 1 0 -4.7 l 6.7 -7.6 a 3.5 3.5 0 0 1 2.6 -1.2 h 18.5 a 3.5 3.5 0 0 1 3.5 3.5 V 525.2 a 3.5 3.5 0 0 1 -3.5 3.5 H 541 A 3.5 3.5 0 0 1 538.3 527.6 Z" transform="translate(-158.4,-147.9)" fill="#e6e6e6"/><circle cx="444.7" cy="432.1" r="41.4" fill="#535461"/><circle cx="587.8" cy="432.1" r="41.4" fill="#535461"/><circle cx="444.7" cy="432.1" r="27.6" fill="#e6e6e6"/><path d="M 603.1 599 A 19 19 0 1 1 622.1 580 A 19.1 19.1 0 0 1 603.1 599 Z m 0 -36.8 a 17.7 17.7 0 1 0 17.7 17.7 A 17.7 17.7 0 0 0 603.1 562.2 Z" transform="translate(-158.4,-147.9)" fill="#535461"/><circle cx="587.8" cy="432.1" r="27.6" fill="#e6e6e6"/><path d="M 746.2 599 a 19 19 0 1 1 19 -19 A 19.1 19.1 0 0 1 746.2 599 Z m 0 -36.8 a 17.7 17.7 0 1 0 17.7 17.7 A 17.7 17.7 0 0 0 746.2 562.2 Z" transform="translate(-158.4,-147.9)" fill="#535461"/><circle cx="517.6" cy="436.7" r="11.8" fill="#535461"/><circle cx="499.5" cy="397.2" r="2.6" fill="#535461"/><circle cx="509.2" cy="397.2" r="2.6" fill="#535461"/><circle cx="507.9" cy="409.5" r="2.6" fill="#535461"/><circle cx="516.9" cy="409.7" r="2.6" fill="#535461"/><circle cx="525.9" cy="409.5" r="2.6" fill="#535461"/><circle cx="504" cy="403.7" r="2.6" fill="#535461"/><circle cx="512.3" cy="403.8" r="2.6" fill="#535461"/><circle cx="520.9" cy="403.8" r="2.6" fill="#535461"/><circle cx="529.8" cy="403.7" r="2.6" fill="#535461"/><circle cx="516.9" cy="397.3" r="2.6" fill="#535461"/><circle cx="526.1" cy="397.3" r="2.6" fill="#535461"/><circle cx="533.7" cy="397.2" r="2.6" fill="#535461"/><path d="M 577.8 458.8 a 4.6 4.6 0 0 0 -4.6 4.6 V 477.2 a 4.6 4.6 0 0 0 4.6 4.6 h 3.3 a 4.6 4.6 0 0 0 4.6 -4.6 V 463.4 a 4.6 4.6 0 0 0 -4.6 -4.6 Z" transform="translate(-158.4,-147.9)" fill="#535461"/><path d="M 769.5 458.8 a 4.6 4.6 0 0 0 -4.6 4.6 V 477.2 a 4.6 4.6 0 0 0 4.6 4.6 h 3.3 a 4.6 4.6 0 0 0 4.6 -4.6 V 463.4 a 4.6 4.6 0 0 0 -4.6 -4.6 Z" transform="translate(-158.4,-147.9)" fill="#535461"/><circle cx="666" cy="334.9" r="15.8" fill="#e6e6e6"/><circle cx="632.5" cy="368.4" r="15.8" fill="#e6e6e6"/><circle cx="700.8" cy="366.4" r="15.8" fill="#e6e6e6"/><circle cx="668.6" cy="401.2" r="15.8" fill="#e6e6e6"/><path d="M 607.5 449.7 a 13.3 13.3 0 0 0 -13.3 13.3 v 58.8 a 13.3 13.3 0 0 0 13.3 13.3 H 742.4 a 13.3 13.3 0 0 0 13.3 -13.3 V 462.9 A 13.3 13.3 0 0 0 742.4 449.7 Z" transform="translate(-158.4,-147.9)" fill="#535461"/><path d="M 835 490 H 813.7 l 10.3 -17.7 Z M 816 488.7 h 16.7 l -8.6 -13.8 Z" transform="translate(-158.4,-147.9)" fill="#535461"/><path d="M 799.7 524.2 H 782 V 508.4 h 17.7 Z m -16.4 -1.3 H 798.4 V 509.7 H 783.3 Z" transform="translate(-158.4,-147.9)" fill="#535461"/><path d="M 859.1 524.2 a 9.8 9.8 0 1 1 9.8 -9.8 A 9.9 9.9 0 0 1 859.1 524.2 Z m 0 -18.4 a 8.5 8.5 0 1 0 8.5 8.5 A 8.5 8.5 0 0 0 859.1 505.8 Z" transform="translate(-158.4,-147.9)" fill="#535461"/><rect x="826.1" y="538.7" width="1.3" height="20.9" transform="translate(-304.5,597.6) rotate(-45)" fill="#535461"/><rect x="816.5" y="548.3" width="20.9" height="1.3" transform="translate(-308.4,576.1) rotate(-43.7)" fill="#535461"/><path d="M 297.9 299.6 c -35.9 9.9 -75.1 17.3 -89.2 5.8 c 7.7 -12.8 12.1 -25.5 12.5 -37.9 a 21.8 21.8 0 0 1 6.4 -15.1 a 24.4 24.4 0 0 1 20.3 -6.6 l 9.3 1.3 q 0.5 0.1 0.9 0.1 A 21.8 21.8 0 0 1 275.8 265.6 C 277.7 279.1 284.3 290.7 297.9 299.6 Z" transform="translate(-158.4,-147.9)" fill="#2f2e41"/><path d="M 332.5 427.3 l 13.9 2.9 a 7.3 7.3 0 0 1 5.2 10.1 v 0 a 7.3 7.3 0 0 1 -10.6 3.3 l -21.3 -13.1 L 283.6 345.3 l 18.8 -5.4 Z" transform="matrix(1,0,0,1,-158.4,-147.9)" fill="#a0616a"/><polygon points="74.9,391.1 64.3,394.1 56.3,377.6 64.5,373.4 74.9,391.1" fill="#a0616a"/><polygon points="69.5,461.7 56.6,458.3 58.6,436.1 69.7,436.8 69.5,461.7" fill="#a0616a"/><path d="M 229.2 523.5 l -13.7 9 L 162.8 472.9 a 11.8 11.8 0 0 1 2.8 -17.9 l 65.7 -39.3 l 10.1 28.9 l -34.2 32.1 Z" transform="translate(-158.4,-147.9)" fill="#2f2e41"/><path d="M 240.8 554.8 q -0.1 0.1 -0.1 0.1 c -0.9 5.1 -2.4 9.8 -5.9 13.2 a 10.2 10.2 0 0 1 -12.4 5.6 h 0 a 10.2 10.2 0 0 1 -7.1 -10.9 l 2.6 -22.9 c 6.1 -1.4 10.8 -4.9 13.2 -11.7 L 237 532.3 A 15.7 15.7 0 0 1 240.8 554.8 Z" transform="translate(-158.4,-147.9)" fill="#2f2e41"/><circle cx="88.9" cy="125.7" r="21.1" fill="#a0616a"/><path d="M 265.6 307.3 l -33.3 27.6 L 229.7 323.6 l 5.8 -8.9 c 1.6 -8.7 0.6 -18.3 -2.2 -28.4 l 21.7 0 C 255.9 294.5 259.1 301.7 265.6 307.3 Z" transform="translate(-158.4,-147.9)" fill="#a0616a"/><path d="M 274.9 379.6 l -44.9 13.7 l -3.5 -16 c -8.4 -11.3 -12.1 -21.6 -6.6 -30 l -2.8 -12.7 c 8 -6.3 14.2 -12.7 17.6 -19.3 l 27.6 -10.8 l 20.3 1.3 l 6 20.1 Z" transform="translate(-158.4,-147.9)" fill="#6c63ff"/><path d="M 306.8 342.1 a 46.3 46.3 0 0 0 -26.8 8.2 l 2.7 -44.6 h 0 a 16.2 16.2 0 0 1 12.7 9.7 Z" transform="translate(-158.4,-147.9)" fill="#6c63ff"/><path d="M 229.1 590 l -14.3 -3.5 l 2.1 -121.2 l 19.1 -21 l -4.3 -26.6 l -2.8 -29.8 l 46.8 -11.6 c 15.8 28.7 25.4 54.8 11.4 71.1 Z" transform="translate(-158.4,-147.9)" fill="#2f2e41"/><path d="M 225.8 630.9 q -0.1 0 -0.2 0.1 c -4.1 4.8 -8.7 8.7 -14.4 10.1 a 12.5 12.5 0 0 1 -16.5 -1.9 v 0 a 12.5 12.5 0 0 1 -0.6 -15.8 l 17.1 -22.3 c 7.3 2.4 14.4 1.7 21.2 -3.9 l 3.7 8 A 19.1 19.1 0 0 1 225.8 630.9 Z" transform="translate(-158.4,-147.9)" fill="#2f2e41"/><path d="M 173.7 441.8 l -12.5 10.7 a 8.1 8.1 0 0 0 1.9 13.6 h 0 a 8.1 8.1 0 0 0 10.5 -3.6 l 9.1 -16.9 l 41.5 -75.7 l -15.6 -2.9 Z" transform="translate(-158.4,-147.9)" fill="#a0616a"/><path d="M 226.7 372.1 c -8.1 -2.4 -15.7 -3.9 -21.6 -2 c 1.2 -15.3 3.8 -28.9 12 -35.4 l 11.8 1.4 Z" transform="translate(-158.4,-147.9)" fill="#6c63ff"/><path d="M 270.8 268.7 l -45.1 -2.8 l 0.6 -9 q 23.6 -15.9 45.1 2.8 Z" transform="translate(-158.4,-147.9)" fill="#2f2e41"/></svg>